<svg version="1.0" xmlns="http://www.w3.org/2000/svg"
 width="512.000000pt" height="512.000000pt" viewBox="0 0 512.000000 512.000000"
 preserveAspectRatio="xMidYMid meet">

<g transform="translate(0.000000,512.000000) scale(0.100000,-0.100000)"
fill="#000000" stroke="none">
<path d="M2492 5109 c-71 -21 -97 -65 -291 -477 -102 -216 -188 -392 -192
-392 -4 0 -181 95 -392 210 -407 222 -438 235 -512 210 -45 -15 -100 -62 -122
-104 -10 -18 -16 -54 -16 -86 1 -30 37 -239 80 -463 52 -267 76 -410 69 -412
-6 -2 -198 -27 -426 -55 -228 -28 -435 -58 -460 -67 -112 -40 -163 -181 -103
-283 9 -15 159 -162 334 -325 176 -163 319 -301 319 -305 0 -4 -143 -142 -319
-305 -175 -163 -325 -310 -334 -325 -60 -101 -8 -243 103 -283 25 -9 232 -39
460 -67 228 -28 420 -53 426 -55 7 -2 -17 -145 -69 -412 -43 -224 -79 -433
-80 -463 0 -32 6 -68 16 -86 22 -42 77 -89 122 -104 74 -25 105 -12 512 210
211 115 388 210 392 210 4 0 90 -176 192 -392 201 -427 218 -454 302 -478 78
-21 168 5 211 64 13 17 106 205 207 418 100 214 186 388 190 388 4 0 181 -95
393 -210 274 -150 398 -212 429 -216 56 -8 108 9 153 49 49 43 67 83 67 147
-1 30 -37 239 -80 463 -52 266 -76 410 -69 412 6 2 200 27 431 55 485 60 504
65 551 146 36 61 40 150 9 201 -10 18 -162 166 -337 329 -175 163 -318 300
-318 304 0 4 143 141 318 304 175 163 326 309 335 325 39 67 31 161 -20 227
-43 58 -86 67 -538 123 -231 29 -425 54 -431 56 -7 2 17 146 69 412 43 224 79
433 80 463 0 64 -18 104 -67 147 -45 40 -97 57 -153 49 -31 -4 -155 -66 -429
-216 -212 -115 -389 -210 -393 -210 -4 0 -90 174 -191 388 -100 213 -191 399
-202 414 -42 60 -147 92 -226 67z m211 -956 c75 -159 149 -304 166 -324 43
-52 91 -72 160 -67 50 4 87 21 351 165 162 88 296 160 297 159 2 -1 -25 -144
-58 -317 -68 -350 -70 -391 -26 -458 47 -71 73 -78 438 -124 181 -22 329 -44
329 -48 0 -4 -108 -107 -240 -230 -255 -237 -280 -269 -280 -349 0 -80 25
-112 280 -349 132 -123 240 -226 240 -230 0 -4 -148 -26 -329 -48 -365 -46
-391 -53 -438 -124 -44 -67 -42 -108 26 -458 33 -173 60 -316 58 -317 -1 -1
-135 71 -297 159 -263 144 -301 161 -351 165 -69 5 -117 -15 -160 -67 -17 -20
-91 -165 -166 -323 -75 -159 -139 -288 -143 -288 -4 0 -68 129 -143 287 -75
159 -149 304 -166 324 -43 52 -91 72 -160 67 -50 -4 -87 -21 -351 -165 -162
-89 -296 -160 -297 -159 -2 1 25 144 58 317 68 350 70 391 26 458 -47 70 -72
78 -438 124 -181 23 -329 44 -329 48 0 3 108 107 240 230 255 237 280 268 280
349 0 81 -25 112 -280 349 -132 123 -240 227 -240 230 0 4 148 25 329 48 366
46 391 54 438 124 44 67 42 108 -26 458 -33 173 -60 316 -58 317 1 1 135 -70
297 -159 264 -144 301 -161 351 -165 69 -5 117 15 160 67 17 20 91 165 166
324 75 158 139 287 143 287 4 0 68 -129 143 -287z"/>
</g>
</svg>